<?xml version="1.0" encoding="utf-8"?>
<!-- Generator: Adobe Illustrator 19.1.0, SVG Export Plug-In . SVG Version: 6.00 Build 0)  -->
<svg version="1.1" id="Layer_1" xmlns="http://www.w3.org/2000/svg" xmlns:xlink="http://www.w3.org/1999/xlink" x="0px" y="0px"
	 viewBox="0 0 72 72" style="enable-background:new 0 0 72 72;" xml:space="preserve">
<style type="text/css">
	.st0{opacity:0.41;fill:url(#SVGID_1_);}
	.st1{opacity:0.41;fill:url(#SVGID_2_);}
	.st2{fill:#FFFFFF;stroke:#474648;stroke-width:0.15;stroke-miterlimit:10;}
	.st3{fill:#231F20;}
	.st4{opacity:0.25;fill:#231F20;}
	.st5{opacity:0.43;fill:#231F20;}
	.st6{fill:#333333;}
	.st7{opacity:0.78;fill:#231F20;}
	.st8{fill:#333232;}
	.st9{fill:#ABABAB;stroke:#010101;stroke-width:0.15;stroke-miterlimit:10;}
</style>
<linearGradient id="SVGID_1_" gradientUnits="userSpaceOnUse" x1="28.9723" y1="19.3213" x2="28.9305" y2="21.6936">
	<stop  offset="0.3641" style="stop-color:#FFFFFF"/>
	<stop  offset="0.791" style="stop-color:#000000"/>
</linearGradient>
<path class="st0" d="M26.266,22.317c0.992-1.056,1.215-1.425,2.619-1.615s2.803,0.811,2.803,0.811s-0.037-0.234-0.069-0.293
	c-0.089-0.165-0.507-0.274-1.035-0.518c-0.528-0.245-1.7-0.243-1.7-0.243s-0.94,0.109-1.763,0.591
	c-0.804,0.471-0.954,1.14-0.954,1.14S26.191,22.264,26.266,22.317z"/>
<linearGradient id="SVGID_2_" gradientUnits="userSpaceOnUse" x1="39.4774" y1="17.9656" x2="39.6529" y2="20.811">
	<stop  offset="0.2516" style="stop-color:#FFFFFF"/>
	<stop  offset="0.7561" style="stop-color:#000000"/>
</linearGradient>
<path class="st1" d="M37,20.917c0,0-0.051-0.299,0.097-0.511c0.148-0.211,0.718-0.652,0.961-0.771
	c0.243-0.119,1.13-0.457,1.848-0.443c0.714,0.014,0.959,0.192,1.499,0.517c0.502,0.302,0.676,0.57,0.728,0.676
	c0.053,0.106,0.182,0.439,0.182,0.439s-0.916-1.418-2.663-1.321C37.906,19.601,37.736,20.118,37,20.917z"/>
<path class="st2" d="M26.168,22.458c0,0,1.07-1.679,2.534-1.735c0,0,1.628-0.234,3.069,0.856c0,0-1.098,1.143-2.801,1.143
	C28.969,22.722,27.097,22.87,26.168,22.458z"/>
<path class="st2" d="M36.922,21.061c0,0,0.704-1.548,2.617-1.548c0,0,1.69-0.232,2.844,1.404c0,0-1.013,0.771-2.731,0.771
	C39.653,21.687,37.992,21.652,36.922,21.061z"/>
<path class="st3" d="M29.701,21.033c0,0,0.352,0.535,0.155,1.126c0,0-1.154,0.479-1.943,0.225c0,0-0.45-0.76,0-1.211
	C28.645,20.695,29.701,21.033,29.701,21.033z"/>
<path class="st3" d="M38.443,21.033c0,0-0.224-0.253,0-0.676c0,0,0.703-0.873,2.167-0.253c0,0,0.282,0.45,0,0.929
	C40.61,21.033,39.176,21.455,38.443,21.033z"/>
<path class="st3" d="M44.509,35.06c0,0,0.707,4.885,0.718,4.948c0.113,0.676,0.788,0.901,0.591,2.027
	c-0.197,1.126,0.056,1.295-1.745,3.04c-1.802,1.745-4.955,4.448-5.49,4.645s-0.873,0.704-1.914,0.394s-5.912-2.787-6.25-2.956
	s-3.772-1.689-3.913-2.449c-0.141-0.76-0.676-6.644-0.873-7.432c-0.197-0.788-0.507-1.9-0.507-1.9s0.648,1.196,0.704,1.506
	c0.056,0.31,0.931,5.424,0.732,6.053c-0.2,0.629,0.197,1.661,0.197,1.661s0.141,0.732,2.59,1.605s3.969,2.421,5.462,2.703
	c1.492,0.282,1.717,0.76,1.717,0.76s0.588,0.873,2.222-0.535c1.634-1.408,5.703-4.382,6.364-5.602
	c0.661-1.221,0.422-2.28,0.338-2.337c-0.084-0.056-0.648-1.351-0.648-1.577s-0.631-4.076-0.422-4.026
	c0.209,0.051-0.422-0.285-0.422-0.285L44.509,35.06"/>
<path class="st3" d="M35.514,51.508c0,0-2.388,1.942-1.774,4.603"/>
<path class="st4" d="M33.525,56.377c0,0-0.084,1.696-0.394,2.551c-0.31,0.855-0.366,0.996-0.563,0.968s-1.267-1.633-1.633-1.971
	c-0.366-0.338-4.223-4.927-5.49-6.151c-1.267-1.225-1.661-3.364-1.661-3.561s0.479-1.717,0.76-3.153s-0.217-0.703,0.253-2.158
	c0,0,0.515-0.841,1.36-1.264c0,0-1.2,2.351,0.02,3.196c0.245,0.17-0.7-0.039,2.071,1.628c0,0,6.843,3.381,7.463,3.63
	c0.621,0.249,0.741,0.261,0.741,0.261l-1.154,1.422"/>
<path class="st5" d="M35.514,51.508l0.938-1.156c0,0,1.398,0.184,2.215-0.266c0.816-0.45,4.927-3.913,5.096-4.223
	s2.423-2.393,2.295-2.956s0.184-1.717,0-1.914c-0.184-0.197-0.876-1.289-0.876-1.289s1.07,0.899,1.705,2.668
	c0,0,1.07,2.703,1.154,3.097c0.084,0.394,0.31,3.435,0,4.082c-0.31,0.648-1.774,2.731-2.562,5.293
	c-0.788,2.562-0.816,3.66-1.013,3.801s-0.901-0.619-1.098-0.76s-1.52-1.605-1.816-2.477s-0.38-1.689-0.38-1.689
	s-0.084-1.408-1.351-2.21H35.514"/>
<path class="st3" d="M23.784,48.212c0,0-5.119,3.253-5.372,3.295s-3.167,0.507-5.574,2.301c-2.407,1.795-5.954,2.977-6.883,3.822
	c-0.929,0.845-3.167,4.096-3.378,4.814c-0.211,0.718-1.689,4.856-1.816,5.616S0,71.06,0,71.06h0.282
	c0.301-0.809,0.782-2.881,1.154-4.054c0.549-1.731,1.182-4.307,1.774-4.899s0.929-2.119,2.365-3.445s3.547-2.593,4.814-3.058
	s3.378-2.154,3.885-2.28c0.507-0.127,1.943-0.887,2.703-1.14c0.76-0.253,1.943-0.591,2.069-0.676
	c0.127-0.084,3.135-1.731,3.167-2.027c0.032-0.296,0.929-0.507,1.182-0.676S23.784,48.212,23.784,48.212z"/>
<path class="st3" d="M47.954,45.179c0,0,6.817,1.936,7.577,2.274s2.998,0.845,3.801,1.013s4.645,1.774,5.279,2.111
	s2.111,1.056,3.083,2.196c0.971,1.14,2.998,4.138,3.04,5.236c0.042,1.098,0.845,3.04,0.845,8.066c0,0-0.063,2.428,0,2.682
	c0.047,0.188-0.137,0.908,0.422,1.964v0.338c0,0-0.507-1.013-0.528-1.626c-0.021-0.612-0.106-4.35-0.106-4.561
	s-0.505-6.906-1.119-7.622c-0.282-0.329-2.217-4.223-2.85-4.624c0,0-2.027-1.626-2.977-1.858c-0.95-0.232-3.062-1.562-4.138-1.774
	c-1.077-0.211-6.567-1.774-7.073-1.943s-4.413-1.415-4.497-1.478S47.954,45.179,47.954,45.179z"/>
<path class="st3" d="M23.796,30.9c0,0,0.95,3.378,1.499,4.223c0.549,0.845,2.935,2.914,3.442,3.273
	c0.507,0.359,1.394,1.52,4.033,2.28c2.639,0.76,5.733-0.232,5.981-0.338c0.248-0.106,3.373-2.639,3.711-2.914
	c0.338-0.274,2.28-3.252,2.682-4.138c0.401-0.887,0.866-3.273,0.845-3.568c-0.021-0.296,0.023-0.718,0.001-0.845
	c-0.009-0.054,0.057-0.007,0.057-0.007c0.022,0.331,0.014,1.146,0.014,1.146l-0.43,2.366c0,0-0.845,2.344-1.119,2.682
	s-1.457,2.28-1.731,2.449s-3.104,2.724-3.716,3.019s-4.962,1.013-5.743,0.697c-0.781-0.317-3.526-1.351-3.758-1.541
	s-2.323-2.133-2.639-2.47c-0.317-0.338-1.689-1.668-1.795-1.837s-0.888-2.31-0.973-2.627c-0.071-0.267-0.363-1.502-0.421-1.854
	L23.796,30.9z"/>
<path class="st6" d="M33.318,24.242c0,0-0.542,0.796-0.897,1.411c-0.241,0.418-0.264,0.517-0.524,1.094c0,0-0.408,1.182,0.648,1.211
	c0,0,1.281,0.084,2.097,0.901c0.816,0.816,1.295-0.113,1.52-0.366s1.073,0.24,1.577-0.901c0.458-1.038,0.225-2.111,0-2.365
	s-1.633-0.028-2.055-2.9s0.113-2.827,0.113-2.827c-0.127,0.107-0.219,0.783-0.176,1.416c0.045,0.668,0.228,1.294,0.211,1.411
	c-0.015,0.103,0.106,0.988,0.465,1.626c0.426,0.757,1.121,1.264,1.401,1.063c0.099,0.025,0.4,0.724,0.447,1.144
	c0.036,0.322-0.146,0.664-0.106,0.971c-0.19,0.465-0.266,0.794-0.38,0.933c-0.384,0.471-1.174,0.618-1.538,0.963
	c-0.341,0.323-0.665,0.243-0.816,0.373c-0.221,0.189-0.83-0.014-1.661-0.697c-0.624-0.513-1.555-0.712-1.774-0.845
	c-0.279-0.169-0.343-1.015,0.605-2.393C32.741,25.078,32.812,24.552,33.318,24.242z"/>
<path class="st6" d="M44.129,18.724c0,0-0.042-0.479-0.282-0.704c-0.239-0.225-1.042-0.845-1.182-0.901s-0.675-0.38-1.492-0.296
	s-0.803-0.056-1.816,0.338s-1.451,0.506-1.985,0.929c0,0-0.366,0.479-0.253,0.816s1.422-0.127,1.999-0.394s0.943-0.422,1.689-0.394
	s1.745,0.127,2.111,0.282S43.918,18.766,44.129,18.724z"/>
<path class="st6" d="M23.732,20.821c0,0-0.154-0.76,0.817-1.379c0.971-0.619,0.816-0.704,1.675-0.915
	c0.859-0.211,1.098-0.239,2.168-0.239c1.07,0,1.605,0.183,1.957,0.282s0.676,0.211,0.718,0.366s-0.282,0.493-0.929,0.507
	S28.42,19.4,28.223,19.4s-1.263-0.068-1.84,0.141s-0.857,0.391-1.251,0.602s-0.625,0.595-0.892,0.679S23.732,20.821,23.732,20.821z"
	/>
<path class="st3" d="M40.385,30.154c-0.845-0.056-0.844-0.138-2.041-0.142c-0.943-0.003-1.154,0.029-1.633,0.156
	c-0.479,0.127-0.895,0.296-1.289,0.267s-1.372-0.05-2.16,0.116c-0.788,0.166-0.905,0.001-2.618,0.827
	c-0.392,0.189-0.973,0.589-0.973,0.589c0,0.001,0.494,0.017,0.635-0.068c0.14-0.085,1.788-0.38,2.266-0.465s1.75-0.113,2.501-0.141
	c0.751-0.028,2.446-0.378,3.299-0.479c1.309-0.155,2.168-0.07,2.534-0.07c0.079,0,0.268-0.229,0.268-0.254
	C41.174,30.371,40.935,30.191,40.385,30.154z"/>
<path class="st7" d="M41.173,30.492c0,0-0.521,1.76-1.274,2.365c-0.753,0.605-1.091,0.802-1.499,0.95s-1.513,0.739-2.168,0.802
	s-1.372,0.57-3.153-0.035c-1.781-0.605-1.992-1.154-2.273-1.316c-0.282-0.162-1.135-1.29-1.135-1.29s0.143-0.096,0.326,0.002
	c0.476,0.254,1.36,0.893,1.731,1.035c0.514,0.197,2.344,0.303,2.935,0.197c0.591-0.106,2.189-0.183,3.498-0.662
	c1.309-0.479,2.104-0.922,2.287-1.246S41.173,30.492,41.173,30.492z"/>
<path class="st8" d="M41.173,53.654c0,0-2.672,3.435-2.73,4.223c0,0-0.733,1.971,0.675,4.504c0,0,1.069,2.646,2.083,7.432
	c0,0,0.268,0.739,0.352,1.246h-8.446c0,0,1.985-9.1,2.069-10.789c0,0,0.338-1.858-0.021-2.344c0,0-0.19-0.718-1.415-1.879
	c0,0-0.211-1.161,0.19-1.9c0,0,0.401-1.668,1.584-2.703h4.307C39.822,51.444,41.089,52.233,41.173,53.654z"/>
<path class="st9" d="M22.114,25.143c0,0-0.535-2.224-1.999-3.181c-1.464-0.957-1.295-3.406-1.323-4.983s-0.619-2.9-0.394-5.828
	s3.519-6.334,5.574-8.052s4.87-3.012,8.784-3.097s6.866,1.886,7.98,2.562s4.858,3.604,5.365,5.518
	c0.507,1.914,1.126,7.038,1.267,8.812s-0.648,3.012-0.816,3.322c-0.169,0.31-0.366,2.646-0.366,2.646s-1.239-7.995-1.351-8.615
	s-0.676-4.533-1.351-4.927c-0.676-0.394-2.956-0.929-4.167-0.788c-1.211,0.141-1.605,1.126-3.632,1.633
	c-2.027,0.507-4.11,0.028-4.983-0.028c-0.873-0.056-3.04,1.042-3.857,1.042c-0.816,0-1.408-1.52-1.971-1.351
	c-0.563,0.169-2.562,0.535-3.35,3.941c-0.788,3.406-0.31,1.843,0.31,7.369S22.114,25.143,22.114,25.143z"/>
<path class="st3" d="M19.714,21.733l0.039,0.046c-0.323-0.077-1.378-0.32-1.721,0.127c-0.422,0.549,0.127,2.935,0.528,3.758
	c0.401,0.823,1.752,1.584,2.301,3.315c0.549,1.731,1.964,1.795,2.069,1.795c0.106,0,0.866-0.084,0.866-0.084V30.9
	c0,0-0.76,0.127-1.457-0.106c0,0-1.14-0.572-1.246-0.782s-0.612-1.646-0.676-1.731s-1.415-1.887-1.647-2.02
	c-0.232-0.133-1.077-2.477-1.035-3.153s0.102-1.288,0.611-1.52C18.855,21.356,19.714,21.733,19.714,21.733z"/>
<path class="st3" d="M22.149,25.334c0,0,1.302,3.137,1.401,4.024c0.07,0.633,0.147,1.124,0.196,1.336c0.02,0.085,0.05,0.1,0.05,0.1
	s-0.253-2.175-0.359-2.428c-0.106-0.253-0.866-2.711-1.077-2.872S22.149,25.334,22.149,25.334z"/>
<path class="st3" d="M46.55,20.216c0,0,1.063-1.23,2.055-1.122s0.866,1.608,0.866,1.608s0.148,1.288-0.401,2.365
	c-0.549,1.077-1.267,1.324-1.541,3.154s-0.232,1.724-0.697,2.167c-0.277,0.264-0.669,0.404-0.823,0.46l-0.02,0.026
	c0,0,1.293-0.118,1.396-0.809s0.314-1.767,0.441-2.105c0.127-0.338-0.274-0.369,0.866-1.979c1.14-1.61,0.908-2.194,0.908-2.293
	c0-0.099,0.127-2.126-0.127-2.442s-1.351-0.507-1.499-0.422s-1.024,0.618-1.088,0.755C46.819,19.714,46.55,20.216,46.55,20.216z"/>
<path class="st3" d="M46.184,22.862c0,0-0.139,2.484-0.126,2.949c0.013,0.465,0.073,2.5,0.063,2.766s-0.133,0.296-0.133,0.296
	s0.001-1.615,0-1.774c-0.001-0.158-0.063-2.154,0-2.396c0.063-0.243,0.036-1.52,0.07-1.584
	C46.093,23.056,46.184,22.862,46.184,22.862z"/>
<path class="st6" d="M21.185,24.692c0,0-0.901-1.091-1.379-0.208c-0.479,0.884-0.253,1.412,0,1.739s0.704,1.368,1.098,1.453
	c0.394,0.084,0.732,0.113,0.901-0.113s-0.338-1.16-0.31-1.34C21.523,26.044,21.185,24.692,21.185,24.692z"/>
<path class="st6" d="M46.466,22.49c0,0,0.343-0.885,0.918-1.27c0.574-0.385,0.574,0.293,0.574,0.293s0.197,1.351,0.113,1.519
	c-0.084,0.168-0.242,0.627-0.262,0.806c-0.02,0.179-0.189,0.714-0.189,0.911s-0.422,1.028-0.732,1.119s-0.704-0.274-0.704-0.274
	s0.394-1.4,0.366-1.755"/>
</svg>
