<?xml version="1.0" encoding="utf-8"?>
<!-- Generator: Adobe Illustrator 19.1.0, SVG Export Plug-In . SVG Version: 6.00 Build 0)  -->
<svg version="1.1" id="Layer_1" xmlns="http://www.w3.org/2000/svg" xmlns:xlink="http://www.w3.org/1999/xlink" x="0px" y="0px"
	 viewBox="0 0 72 72" style="enable-background:new 0 0 72 72;" xml:space="preserve">
<style type="text/css">
	.st0{fill:url(#SVGID_1_);}
	.st1{fill:url(#SVGID_2_);stroke:#000000;stroke-width:0.75;stroke-miterlimit:10;}
	.st2{fill:url(#SVGID_3_);stroke:#000000;stroke-width:0.75;stroke-miterlimit:10;}
	.st3{fill:url(#SVGID_4_);stroke:#000000;stroke-width:0.75;stroke-miterlimit:10;}
	.st4{stroke:#000000;stroke-width:0.75;stroke-miterlimit:10;}
	.st5{fill:url(#SVGID_5_);stroke:#000000;stroke-miterlimit:10;}
	.st6{fill:none;}
	.st7{font-family:'LetterGothicStd-BoldSlanted';}
	.st8{font-size:7.3713px;}
	.st9{font-family:'LetterGothicStd-Bold';}
</style>
<linearGradient id="SVGID_1_" gradientUnits="userSpaceOnUse" x1="26.1238" y1="61.3417" x2="26.3638" y2="45.3344">
	<stop  offset="0" style="stop-color:#FFF33B"/>
	<stop  offset="0.0595" style="stop-color:#FFE029"/>
	<stop  offset="0.1303" style="stop-color:#FFD218"/>
	<stop  offset="0.2032" style="stop-color:#FEC90F"/>
	<stop  offset="0.2809" style="stop-color:#FDC70C"/>
	<stop  offset="0.6685" style="stop-color:#F3903F"/>
	<stop  offset="0.8876" style="stop-color:#ED683C"/>
	<stop  offset="1" style="stop-color:#E93E3A"/>
</linearGradient>
<path class="st0" d="M20.976,46.031l2.059,11.872c0,0,0.376-7.218,0.969-5.759c0.593,1.459,0.977,8.293,1.361,5.221
	c0.384-3.071,0.256-9.337,0.896-7.548c0.64,1.789-0.358,11.882,1.024,8.333s1.152-11.688,1.689-9.538
	c0.537,2.15-0.665,16.508,0.512,10.289s1.126-10.38,1.715-10.826s0.526-2.044,0.526-2.044s-3.037,1.705-5.249,1.598
	C23.763,47.496,20.976,46.031,20.976,46.031z"/>
<linearGradient id="SVGID_2_" gradientUnits="userSpaceOnUse" x1="13.6542" y1="23.6927" x2="37.8781" y2="31.6965">
	<stop  offset="0" style="stop-color:#FFFFFF"/>
	<stop  offset="0.3726" style="stop-color:#FCFCFC"/>
	<stop  offset="0.5069" style="stop-color:#F5F5F5"/>
	<stop  offset="0.6026" style="stop-color:#EBEBEC"/>
	<stop  offset="0.68" style="stop-color:#DCDEDF"/>
	<stop  offset="0.7463" style="stop-color:#CACCCE"/>
	<stop  offset="0.805" style="stop-color:#B4B6B8"/>
	<stop  offset="0.8581" style="stop-color:#9A9C9E"/>
	<stop  offset="0.9069" style="stop-color:#7D7F82"/>
	<stop  offset="0.9523" style="stop-color:#5C5C5F"/>
	<stop  offset="0.9926" style="stop-color:#202021"/>
	<stop  offset="1" style="stop-color:#000000"/>
</linearGradient>
<path class="st1" d="M26.197,7.547c0,0-1.696,1.528-3.51,3.67c-1.58,1.865-2.877,4.012-3.963,6.389c0,0-4.607,12.102,0.614,24.633
	l1.638,3.792c0,0,1.907,1.598,5.501,1.598s5.249-1.598,5.249-1.598s3.583-8.68,3.276-9.901c0,0,2.969-9.34-1.433-18.216
	C33.569,17.913,31.114,12.353,26.197,7.547z"/>
<linearGradient id="SVGID_3_" gradientUnits="userSpaceOnUse" x1="15.634" y1="51.1241" x2="20.9762" y2="51.1241">
	<stop  offset="0" style="stop-color:#FFFFFF"/>
	<stop  offset="0.0555" style="stop-color:#DDBFB8"/>
	<stop  offset="0.1194" style="stop-color:#C38E84"/>
	<stop  offset="0.1841" style="stop-color:#AF6A60"/>
	<stop  offset="0.2484" style="stop-color:#A14F48"/>
	<stop  offset="0.3122" style="stop-color:#963837"/>
	<stop  offset="0.3753" style="stop-color:#8E272C"/>
	<stop  offset="0.4375" style="stop-color:#8A1B26"/>
	<stop  offset="0.4977" style="stop-color:#881725"/>
</linearGradient>
<path class="st2" d="M17.057,59.205c0,0-4.61-13.405,2.763-16.162l1.156,2.988C20.976,46.031,17.262,45.568,17.057,59.205z"/>
<linearGradient id="SVGID_4_" gradientUnits="userSpaceOnUse" x1="31.726" y1="51.1241" x2="36.8732" y2="51.1241">
	<stop  offset="0" style="stop-color:#FFFFFF"/>
	<stop  offset="0.0056" style="stop-color:#F8F2F0"/>
	<stop  offset="0.0474" style="stop-color:#DCBFB7"/>
	<stop  offset="0.0942" style="stop-color:#C7968C"/>
	<stop  offset="0.1445" style="stop-color:#B6776C"/>
	<stop  offset="0.1992" style="stop-color:#A95E56"/>
	<stop  offset="0.2595" style="stop-color:#9E4A45"/>
	<stop  offset="0.3273" style="stop-color:#963938"/>
	<stop  offset="0.4062" style="stop-color:#902B2F"/>
	<stop  offset="0.5033" style="stop-color:#8B2029"/>
	<stop  offset="0.6383" style="stop-color:#891925"/>
	<stop  offset="1" style="stop-color:#881725"/>
</linearGradient>
<path class="st3" d="M35.991,59.205c0,0-0.781-13.897-4.265-13.175l1.399-2.988C33.125,43.043,39.063,42.804,35.991,59.205z"/>
<circle class="st4" cx="26.197" cy="29.65" r="3.839"/>
<linearGradient id="SVGID_5_" gradientUnits="userSpaceOnUse" x1="22.9725" y1="29.6502" x2="29.4224" y2="29.6502">
	<stop  offset="0.0955" style="stop-color:#FFFFFF"/>
	<stop  offset="0.2319" style="stop-color:#FBFBFB"/>
	<stop  offset="0.3632" style="stop-color:#F0F0F0"/>
	<stop  offset="0.4925" style="stop-color:#DCDCDD"/>
	<stop  offset="0.6206" style="stop-color:#C1C1C2"/>
	<stop  offset="0.7478" style="stop-color:#9E9E9F"/>
	<stop  offset="0.8738" style="stop-color:#747374"/>
	<stop  offset="0.9978" style="stop-color:#424143"/>
	<stop  offset="1" style="stop-color:#414042"/>
</linearGradient>
<circle class="st5" cx="26.197" cy="29.65" r="3.225"/>
<path class="st6" d="M25.512,0c0,0-1.479,1.332-3.061,3.2c-1.377,1.626-2.508,3.498-3.456,5.57c0,0-4.017,10.552,0.536,21.477
	l1.428,3.306h9.373c0,0,3.124-7.568,2.856-8.633c0,0,2.589-8.144-1.25-15.883C31.939,9.038,29.799,4.191,25.512,0z"/>
<text transform="matrix(1 0 0 1 17.6313 23.1606)" class="st7 st8">UCLS</text>
<text transform="matrix(1 0 0 1 -2.425187e-05 68.0254)" class="st9 st8">Science Team</text>
</svg>
