<?xml version="1.0" encoding="utf-8"?>
<!-- Generator: Adobe Illustrator 19.1.0, SVG Export Plug-In . SVG Version: 6.00 Build 0)  -->
<svg version="1.1" id="Layer_1" xmlns="http://www.w3.org/2000/svg" xmlns:xlink="http://www.w3.org/1999/xlink" x="0px" y="0px"
	 viewBox="0 0 576 576" style="enable-background:new 0 0 576 576;" xml:space="preserve">
<style type="text/css">
	.st0{fill:#FFFFFF;stroke:#000000;stroke-width:5;stroke-miterlimit:10;}
	.st1{fill:url(#SVGID_1_);stroke:#000000;stroke-width:2;stroke-miterlimit:10;}
	.st2{fill:none;stroke:#000000;stroke-width:5;stroke-miterlimit:10;}
	.st3{fill:#FFFFFF;stroke:#000000;stroke-width:2;stroke-miterlimit:10;}
</style>
<path class="st0" d="M79.703,88.951c-12.047,4.42,51.801-2.758,69.387,86.801c7.827,39.964-7.501,156.895-8.249,159.356
	c0,0-29.85,103.933-9.568,161.96s59.545,58.583,59.545,58.583s21.319,11.896,139.992-35.012
	c118.673-46.908,152.085-63.956,161.058-99.162s-1.453-73.125-59.093-126.642S305.107,197.63,279.964,161.3
	s-50.428-88.846-40.473-111.74c8.103-18.635,14.661-26.187,14.661-26.187c2.419-1.253-32.477,29.388-80.604,47.627
	C144.752,81.913,79.703,88.951,79.703,88.951z"/>
<linearGradient id="SVGID_1_" gradientUnits="userSpaceOnUse" x1="-0.8724" y1="128.0006" x2="449.3054" y2="569.5379">
	<stop  offset="0" style="stop-color:#FFFFFF"/>
	<stop  offset="0.2035" style="stop-color:#BDC1DC"/>
	<stop  offset="0.4159" style="stop-color:#7F87BC"/>
	<stop  offset="0.5962" style="stop-color:#515DA4"/>
	<stop  offset="0.7348" style="stop-color:#354395"/>
	<stop  offset="0.8151" style="stop-color:#2B3990"/>
</linearGradient>
<path class="st1" d="M151.262,214.175c0,0-9.012-104.425-58.262-119.675c-27.275-8.445,34.266-10.522,38.621-10.032
	c36.278,4.083,66.594,126.611,85.867,132.75c29.784,9.488,31.744,36.784,63.487,65.47c31.744,28.686,56.685,40.093,98.632,24.786
	s41.403,8.053,62.23,11.964c21.534,3.401,21.087,9.457,21.087,9.457s40.147,34.343,28.944,92.581
	c-11.202,58.238-231.943,131.956-286.951,135.414s-84.065-65.678-80.699-111.051s25.414-150.604,23.852-175.065
	C146.508,246.316,151.262,214.175,151.262,214.175z"/>
<path class="st2" d="M80.704,88.37c-6.526-0.861,115.149-79.986,173.447-64.997"/>
<g>
	<path d="M265.555,94.281c-3.091,1.052-6.04,0.691-8.847-1.08c-2.808-1.771-4.871-4.598-6.191-8.479
		c-1.393-4.097-1.479-8.237-0.255-12.422l5.499,1.317c-1.108,3.343-1.234,6.272-0.379,8.788c0.599,1.761,1.546,3.042,2.842,3.845
		c1.295,0.802,2.697,0.947,4.206,0.434c1.797-0.611,3.465-2.722,5.003-6.332c0.71-1.685,1.696-4.266,2.96-7.742
		c1.416-3.97,3.598-6.455,6.544-7.457c2.767-0.941,5.409-0.567,7.929,1.122c2.519,1.688,4.384,4.312,5.594,7.87
		c1.173,3.449,1.236,6.995,0.19,10.639l-5.141-1.499c0.716-2.609,0.745-4.884,0.085-6.824c-0.501-1.474-1.261-2.528-2.279-3.164
		s-2.12-0.752-3.306-0.349c-1.438,0.489-2.735,2.213-3.894,5.173c-0.402,1.059-1.359,3.549-2.871,7.472
		C271.531,90.224,268.969,93.121,265.555,94.281z"/>
	<path d="M272.533,127.087c-2.967-1.813-5.268-4.327-6.901-7.541c-1.962-3.856-2.362-7.677-1.2-11.462s3.688-6.667,7.579-8.646
		c3.857-1.961,7.729-2.26,11.618-0.895c3.888,1.365,6.873,4.095,8.955,8.188c1.463,2.875,2.077,5.799,1.843,8.771l-4.555-0.165
		c-0.063-2.048-0.497-3.864-1.303-5.448c-1.2-2.361-2.952-3.857-5.254-4.49s-4.756-0.286-7.36,1.039
		c-2.707,1.377-4.521,3.212-5.44,5.504c-0.921,2.293-0.78,4.62,0.421,6.98c0.823,1.618,2.248,3.122,4.274,4.511L272.533,127.087z"/>
	<path d="M278.653,141.031l-3.882-6.436l24.375-14.705l3.882,6.435L278.653,141.031z M310.801,122.234
		c-1.008,0.608-2.093,0.774-3.255,0.501c-1.163-0.273-2.049-0.915-2.656-1.922c-0.607-1.008-0.783-2.087-0.525-3.24
		c0.258-1.152,0.874-2.023,1.85-2.611c1.137-0.687,2.261-0.898,3.372-0.638c1.109,0.261,2.008,0.959,2.694,2.098
		c0.628,1.039,0.798,2.111,0.511,3.216S311.841,121.607,310.801,122.234z"/>
	<path d="M311.255,162.005c-0.061,0.047-0.332-0.056-0.813-0.305c-0.483-0.251-0.769-0.341-0.859-0.271l-10.509-13.537
		c-2.256,1.798-3.548,3.847-3.878,6.146s0.296,4.467,1.879,6.506c1.489,1.918,3.603,3.402,6.338,4.45l-1.812,4.073
		c-3.983-1.665-7.092-3.937-9.326-6.815c-2.561-3.298-3.659-6.817-3.296-10.559c0.406-4.305,2.469-7.899,6.187-10.785
		c3.418-2.654,7.067-3.71,10.949-3.166c3.667,0.516,6.759,2.393,9.272,5.631c3.165,4.077,3.681,8.146,1.547,12.206
		C315.792,157.762,313.899,159.903,311.255,162.005z M309.384,154.952c0.27-0.209,0.617-0.504,1.044-0.883
		c3.199-2.873,3.766-5.641,1.698-8.305c-2.444-3.147-5.791-3.219-10.039-0.212L309.384,154.952z"/>
	<path d="M328.369,196.743l-5.611-5l10.835-12.156c1.641-1.842,2.601-3.376,2.88-4.602c0.381-1.796-0.236-3.414-1.852-4.854
		c-2.323-2.071-4.696-2.432-7.119-1.082c-0.912,0.51-2.087,1.571-3.526,3.187l-10.229,11.476l-5.652-5.038l18.94-21.252l5.653,5.038
		l-2.538,2.849c4.034-0.42,7.455,0.619,10.261,3.119c3.4,3.031,4.451,6.357,3.154,9.98c-0.535,1.456-2.014,3.544-4.438,6.264
		L328.369,196.743z"/>
	<path d="M355.08,215.666c-3.448-0.441-6.575-1.795-9.382-4.059c-3.367-2.718-5.295-6.04-5.782-9.97s0.64-7.593,3.381-10.989
		c2.718-3.368,6.129-5.224,10.236-5.567c4.106-0.345,7.946,0.925,11.521,3.81c2.511,2.025,4.267,4.443,5.27,7.251l-4.225,1.712
		c-0.896-1.843-2.034-3.323-3.417-4.439c-2.062-1.663-4.271-2.312-6.631-1.948c-2.359,0.363-4.456,1.684-6.292,3.958
		c-1.907,2.363-2.812,4.779-2.714,7.247c0.098,2.469,1.178,4.535,3.238,6.198c1.413,1.14,3.328,1.93,5.746,2.368L355.08,215.666z"/>
	<path d="M386.209,224.363c-0.047,0.061-0.335,0.025-0.863-0.101c-0.528-0.127-0.827-0.146-0.898-0.056l-13.456-10.612
		c-1.757,2.288-2.52,4.588-2.286,6.898c0.232,2.311,1.361,4.264,3.389,5.862c1.907,1.504,4.314,2.437,7.222,2.795l-0.778,4.39
		c-4.267-0.657-7.83-2.115-10.691-4.371c-3.279-2.586-5.192-5.737-5.739-9.457c-0.641-4.275,0.496-8.261,3.411-11.957
		c2.68-3.397,5.968-5.3,9.865-5.706c3.685-0.381,7.137,0.697,10.355,3.235c4.053,3.196,5.531,7.021,4.438,11.476
		C389.593,219.153,388.271,221.688,386.209,224.363z M382.697,217.968c0.211-0.269,0.478-0.638,0.8-1.108
		c2.415-3.558,2.299-6.381-0.349-8.469c-3.129-2.468-6.396-1.732-9.795,2.209L382.697,217.968z"/>
	<path d="M438.021,240.483l-9.509-7.799l-21.879,26.679l-6.208-5.091l21.88-26.679l-9.465-7.762l3.394-4.139l25.181,20.652
		L438.021,240.483z"/>
	<path d="M447.36,275.301c-0.051,0.058-0.336,0.008-0.856-0.146c-0.521-0.154-0.819-0.188-0.895-0.104l-12.872-11.312
		c-1.877,2.191-2.76,4.447-2.65,6.767c0.108,2.319,1.133,4.33,3.072,6.034c1.824,1.604,4.179,2.663,7.062,3.176l-1.011,4.342
		c-4.227-0.884-7.707-2.529-10.444-4.935c-3.137-2.757-4.879-6.005-5.228-9.748c-0.412-4.305,0.936-8.223,4.043-11.759
		c2.856-3.25,6.241-4.975,10.155-5.173c3.699-0.185,7.089,1.076,10.168,3.782c3.877,3.407,5.15,7.306,3.82,11.695
		C451.017,270.278,449.562,272.739,447.36,275.301z M444.193,268.728c0.226-0.256,0.512-0.611,0.858-1.064
		c2.601-3.424,2.635-6.249,0.103-8.475c-2.994-2.632-6.294-2.07-9.899,1.684L444.193,268.728z"/>
	<path d="M459.225,306.962l-5.674-5.599c0.529-1.131,1.261-2.196,2.193-3.194c-3.89,0.375-7.104-0.691-9.644-3.197
		c-1.621-1.6-2.445-3.52-2.474-5.761c-0.029-2.24,0.783-4.198,2.437-5.874c2.399-2.432,5.552-3.16,9.459-2.185
		c2.235,0.554,4.704,1.656,7.407,3.31c1.106,0.666,2.485,1.521,4.134,2.56c1.856-2.967,1.687-5.534-0.509-7.701
		c-1.683-1.659-4.11-2.616-7.285-2.869l0.73-4.238c4.163,0.482,7.745,2.203,10.743,5.162c3.188,3.146,4.551,6.304,4.09,9.475
		c-0.181,1.209-0.55,2.285-1.106,3.228c-0.665,1.052-1.862,2.455-3.595,4.211l-5.359,5.431
		C461.974,302.556,460.124,304.97,459.225,306.962z M462.145,292.007l1.92-1.945c-0.542-0.321-1.436-0.856-2.68-1.604
		c-4.277-2.567-7.429-2.824-9.454-0.771c-0.854,0.864-1.297,1.84-1.329,2.928c-0.033,1.087,0.342,2.017,1.125,2.79
		c0.973,0.96,2.185,1.516,3.635,1.667c1.262,0.125,2.401-0.083,3.418-0.627C460.17,293.737,461.292,292.924,462.145,292.007z"/>
	<path d="M490.796,346.471l-4.451-5.914l13.237-9.964c2.062-1.552,3.296-2.91,3.701-4.075c0.541-1.555,0.25-3.077-0.874-4.57
		c-1.812-2.408-3.999-3.104-6.558-2.084c-0.774,0.296-1.935,1.026-3.481,2.19l-12.736,9.587l-4.52-6.004l13.055-9.827
		c2.062-1.552,3.32-2.879,3.773-3.98c0.688-1.61,0.438-3.205-0.748-4.781c-1.529-2.032-3.398-2.811-5.606-2.336
		c-0.979,0.214-2.378,1.006-4.197,2.376l-12.919,9.724l-4.554-6.05l22.744-17.12l4.554,6.051l-3.048,2.294
		c3.855,0.137,6.938,1.737,9.243,4.801c2.26,3.002,2.728,6.117,1.405,9.346c4.198,0.593,7.383,2.329,9.552,5.21
		c2.419,3.214,2.85,6.406,1.291,9.574c-0.719,1.443-2.549,3.273-5.49,5.486L490.796,346.471z"/>
</g>
<circle class="st3" cx="420.805" cy="364.718" r="14.046"/>
<circle class="st3" cx="343" cy="364.718" r="14"/>
<circle class="st3" cx="259.129" cy="301.906" r="10.129"/>
<circle class="st3" cx="314" cy="331.117" r="7"/>
<circle class="st3" cx="238" cy="259.213" r="11"/>
<circle class="st3" cx="186.274" cy="166.434" r="12.726"/>
<circle class="st3" cx="179.512" cy="113.21" r="12.21"/>
<circle class="st3" cx="249" cy="184.708" r="10"/>
<circle class="st3" cx="119" cy="30.777" r="14.046"/>
<circle class="st3" cx="184.224" cy="35.531" r="14.046"/>
<circle class="st3" cx="358.287" cy="460.786" r="14.046"/>
<circle class="st3" cx="269.259" cy="399.686" r="14.046"/>
</svg>
