<?xml version="1.0" encoding="utf-8"?>
<!-- Generator: Adobe Illustrator 19.1.0, SVG Export Plug-In . SVG Version: 6.00 Build 0)  -->
<svg version="1.1" id="Layer_1" xmlns="http://www.w3.org/2000/svg" xmlns:xlink="http://www.w3.org/1999/xlink" x="0px" y="0px"
	 viewBox="0 0 576 576" style="enable-background:new 0 0 576 576;" xml:space="preserve">
<style type="text/css">
	.st0{fill:none;}
	.st1{font-family:'LetterGothicStd';}
	.st2{font-size:57.2434px;}
	.st3{fill:#FFFFFF;stroke:#000000;stroke-width:5;stroke-miterlimit:10;}
	.st4{fill:url(#SVGID_1_);stroke:#000000;stroke-width:2;stroke-miterlimit:10;}
	.st5{font-family:'Optima-Regular';}
	.st6{font-size:81.8291px;}
</style>
<polygon class="st0" points="458.825,553.738 71.45,553.738 71.45,446.475 455.935,446.475 "/>
<text transform="matrix(1 0 0 1 71.45 488.9482)" class="st1 st2">2016 - 2017</text>
<path class="st3" d="M129.049,139.826c-7.617,2.795,32.754-1.744,43.874,54.885c4.949,25.27-4.743,99.206-5.216,100.762
	c0,0-18.874,65.717-6.05,102.408s37.65,37.042,37.65,37.042s13.48,7.522,88.518-22.138c75.038-29.66,96.164-40.44,101.838-62.7
	c5.674-22.261-0.918-46.237-37.365-80.076s-80.724-61.463-96.623-84.435s-30.619-55.69-25.591-70.654s6.826-15.292,9.27-16.558
	C241.798,97.095,178.841,121.557,129.049,139.826z"/>
<linearGradient id="SVGID_1_" gradientUnits="userSpaceOnUse" x1="80.0189" y1="166.3991" x2="362.5216" y2="443.4796">
	<stop  offset="0" style="stop-color:#FFFFFF"/>
	<stop  offset="0.2035" style="stop-color:#BDC1DC"/>
	<stop  offset="0.4159" style="stop-color:#7F87BC"/>
	<stop  offset="0.5962" style="stop-color:#515DA4"/>
	<stop  offset="0.7348" style="stop-color:#354395"/>
	<stop  offset="0.8151" style="stop-color:#2B3990"/>
</linearGradient>
<path class="st4" d="M174.296,219.006c0,0-6.724-68.822-34.827-73.031c-17.961-2.69,16.601-13.123,19.355-12.813
	c22.939,2.582,45.161,83.887,57.347,87.77c18.833,5.999,20.072,23.259,40.143,41.397c20.072,18.139,35.842,25.351,62.365,15.672
	c26.523-9.679,26.179,5.092,39.348,7.565c13.616,2.151,13.333,5.98,13.333,5.98s25.385,21.715,18.302,58.54
	c-7.083,36.824-146.659,83.436-181.44,85.623s-53.155-41.529-51.027-70.218c2.128-28.689,16.07-95.228,15.082-110.694
	C171.29,239.329,174.296,219.006,174.296,219.006z"/>
<text transform="matrix(1 0 0 1 26.5464 91.3135)" class="st5 st6">Science Team</text>
</svg>
