<?xml version="1.0" encoding="utf-8"?>
<!-- Generator: Adobe Illustrator 19.1.0, SVG Export Plug-In . SVG Version: 6.00 Build 0)  -->
<svg version="1.1" id="Layer_1" xmlns="http://www.w3.org/2000/svg" xmlns:xlink="http://www.w3.org/1999/xlink" x="0px" y="0px"
	 viewBox="0 0 576 576" style="enable-background:new 0 0 576 576;" xml:space="preserve">
<style type="text/css">
	.st0{fill:url(#SVGID_1_);}
	.st1{fill:url(#SVGID_2_);stroke:#000000;stroke-width:2;stroke-miterlimit:10;}
	.st2{fill:url(#SVGID_3_);stroke:#000000;stroke-miterlimit:10;}
	.st3{fill:url(#SVGID_4_);stroke:#000000;stroke-miterlimit:10;}
	.st4{stroke:#000000;stroke-width:4;stroke-miterlimit:10;}
	.st5{fill:url(#SVGID_5_);stroke:#000000;stroke-miterlimit:10;}
	.st6{font-family:'LetterGothicStd-Bold';}
	.st7{font-size:59.917px;}
</style>
<linearGradient id="SVGID_1_" gradientUnits="userSpaceOnUse" x1="301.1436" y1="500.9174" x2="303.0948" y2="370.8034">
	<stop  offset="0" style="stop-color:#FFF33B"/>
	<stop  offset="0.0595" style="stop-color:#FFE029"/>
	<stop  offset="0.1303" style="stop-color:#FFD218"/>
	<stop  offset="0.2032" style="stop-color:#FEC90F"/>
	<stop  offset="0.2809" style="stop-color:#FDC70C"/>
	<stop  offset="0.6685" style="stop-color:#F3903F"/>
	<stop  offset="0.8876" style="stop-color:#ED683C"/>
	<stop  offset="1" style="stop-color:#E93E3A"/>
</linearGradient>
<path class="st0" d="M259.302,376.463l16.739,96.5c0,0,3.055-58.669,7.873-46.81c4.818,11.859,7.938,67.407,11.059,42.441
	c3.121-24.965,2.08-75.894,7.282-61.352c5.201,14.542-2.913,96.581,8.322,67.732c11.234-28.849,9.362-95.007,13.731-77.531
	c4.369,17.476-5.409,134.184,4.161,83.632s9.154-84.376,13.939-88.001c4.785-3.624,4.274-16.611,4.274-16.611
	s-24.684,13.861-42.667,12.986C281.956,388.377,259.302,376.463,259.302,376.463z"/>
<linearGradient id="SVGID_2_" gradientUnits="userSpaceOnUse" x1="199.7864" y1="194.8908" x2="396.6878" y2="259.9491">
	<stop  offset="0" style="stop-color:#FFFFFF"/>
	<stop  offset="0.3726" style="stop-color:#FCFCFC"/>
	<stop  offset="0.5069" style="stop-color:#F5F5F5"/>
	<stop  offset="0.6026" style="stop-color:#EBEBEC"/>
	<stop  offset="0.68" style="stop-color:#DCDEDF"/>
	<stop  offset="0.7463" style="stop-color:#CACCCE"/>
	<stop  offset="0.805" style="stop-color:#B4B6B8"/>
	<stop  offset="0.8581" style="stop-color:#9A9C9E"/>
	<stop  offset="0.9069" style="stop-color:#7D7F82"/>
	<stop  offset="0.9523" style="stop-color:#5C5C5F"/>
	<stop  offset="0.9926" style="stop-color:#202021"/>
	<stop  offset="1" style="stop-color:#000000"/>
</linearGradient>
<path class="st1" d="M301.743,63.651c0,0-13.789,12.422-28.533,29.832c-12.841,15.163-23.385,32.608-32.217,51.93
	c0,0-37.448,98.37,4.993,200.226l13.315,30.825c0,0,15.504,12.986,44.712,12.986c29.208,0,42.667-12.986,42.667-12.986
	s29.126-70.554,26.63-80.483c0,0,24.133-75.923-11.651-148.071C361.66,147.909,341.709,102.72,301.743,63.651z"/>
<linearGradient id="SVGID_3_" gradientUnits="userSpaceOnUse" x1="215.8788" y1="417.864" x2="259.3018" y2="417.864">
	<stop  offset="0" style="stop-color:#FFFFFF"/>
	<stop  offset="0.0555" style="stop-color:#DDBFB8"/>
	<stop  offset="0.1194" style="stop-color:#C38E84"/>
	<stop  offset="0.1841" style="stop-color:#AF6A60"/>
	<stop  offset="0.2484" style="stop-color:#A14F48"/>
	<stop  offset="0.3122" style="stop-color:#963837"/>
	<stop  offset="0.3753" style="stop-color:#8E272C"/>
	<stop  offset="0.4375" style="stop-color:#8A1B26"/>
	<stop  offset="0.4977" style="stop-color:#881725"/>
</linearGradient>
<path class="st2" d="M227.448,483.551c0,0-37.471-108.964,22.458-131.375l9.396,24.286
	C259.302,376.463,229.112,372.705,227.448,483.551z"/>
<linearGradient id="SVGID_4_" gradientUnits="userSpaceOnUse" x1="346.6807" y1="417.864" x2="388.5193" y2="417.864">
	<stop  offset="0" style="stop-color:#FFFFFF"/>
	<stop  offset="0.0056" style="stop-color:#F8F2F0"/>
	<stop  offset="0.0474" style="stop-color:#DCBFB7"/>
	<stop  offset="0.0942" style="stop-color:#C7968C"/>
	<stop  offset="0.1445" style="stop-color:#B6776C"/>
	<stop  offset="0.1992" style="stop-color:#A95E56"/>
	<stop  offset="0.2595" style="stop-color:#9E4A45"/>
	<stop  offset="0.3273" style="stop-color:#963938"/>
	<stop  offset="0.4062" style="stop-color:#902B2F"/>
	<stop  offset="0.5033" style="stop-color:#8B2029"/>
	<stop  offset="0.6383" style="stop-color:#891925"/>
	<stop  offset="1" style="stop-color:#881725"/>
</linearGradient>
<path class="st3" d="M381.352,483.552c0,0-6.347-112.957-34.671-107.089l11.37-24.286
	C358.05,352.177,406.317,350.237,381.352,483.552z"/>
<circle class="st4" cx="301.743" cy="243.316" r="31.207"/>
<linearGradient id="SVGID_5_" gradientUnits="userSpaceOnUse" x1="275.5293" y1="243.3158" x2="327.9567" y2="243.3158">
	<stop  offset="0.0955" style="stop-color:#FFFFFF"/>
	<stop  offset="0.2319" style="stop-color:#FBFBFB"/>
	<stop  offset="0.3632" style="stop-color:#F0F0F0"/>
	<stop  offset="0.4925" style="stop-color:#DCDCDD"/>
	<stop  offset="0.6206" style="stop-color:#C1C1C2"/>
	<stop  offset="0.7478" style="stop-color:#9E9E9F"/>
	<stop  offset="0.8738" style="stop-color:#747374"/>
	<stop  offset="0.9978" style="stop-color:#424143"/>
	<stop  offset="1" style="stop-color:#414042"/>
</linearGradient>
<circle class="st5" cx="301.743" cy="243.316" r="26.214"/>
<g>
	<path d="M271.188,147.423l-6.771,31.818c-1.737,8.149-8.688,12.164-14.501,12.164c-4.674,0-11.385-2.637-8.868-14.561l6.232-29.421
		h4.494l-6.771,31.818c-1.318,6.232,2.217,8.389,5.692,8.389c5.513,0,8.329-4.075,9.348-8.928l6.651-31.279H271.188z"/>
	<path d="M295.033,156.771c0.719-3.596-1.258-6.412-4.913-6.412c-9.108,0-12.344,12.344-13.782,18.995
		c-1.318,6.292-3.236,18.276,5.393,18.276c4.494,0,7.91-3.355,8.869-7.61h4.494c-1.918,7.011-7.131,11.385-14.322,11.385
		c-11.864,0-10.786-13.003-8.868-22.171c2.037-9.467,6.771-22.65,18.935-22.65c5.992,0,9.587,4.195,8.688,10.187H295.033z"/>
	<path d="M306.595,186.791h18.695l-0.778,3.775h-23.189l9.168-43.143h4.494L306.595,186.791z"/>
	<path d="M356.866,155.212c-2.097-2.337-4.554-4.854-8.269-4.854c-3.835,0-7.551,2.636-8.39,6.591
		c-0.479,2.277-0.479,4.314,4.555,7.85l2.996,2.097c6.95,4.854,8.568,7.131,7.489,12.164c-1.678,7.73-7.789,12.344-15.34,12.344
		c-5.572,0-9.107-2.696-11.564-7.011l4.075-2.756c1.378,3.355,4.134,5.992,8.269,5.992c4.494,0,8.929-3.355,9.947-7.97
		c0.719-3.476,0.659-4.614-5.933-9.228l-3.355-2.337c-3.655-2.576-6.831-5.453-5.692-10.846c1.438-6.771,7.43-10.666,13.901-10.666
		c4.494,0,8.149,2.397,10.727,5.393L356.866,155.212z"/>
</g>
<text transform="matrix(1 0 0 1 88.7998 555.2529)" class="st6 st7">Science Team</text>
</svg>
