<?xml version="1.0" encoding="utf-8"?>
<!-- Generator: Adobe Illustrator 19.1.0, SVG Export Plug-In . SVG Version: 6.00 Build 0)  -->
<svg version="1.1" id="Layer_1" xmlns="http://www.w3.org/2000/svg" xmlns:xlink="http://www.w3.org/1999/xlink" x="0px" y="0px"
	 viewBox="0 0 576 576" style="enable-background:new 0 0 576 576;" xml:space="preserve">
<style type="text/css">
	.st0{fill:url(#SVGID_1_);stroke:#000000;stroke-miterlimit:10;}
	.st1{fill:#881725;stroke:#000000;stroke-miterlimit:10;}
	.st2{fill:url(#SVGID_2_);stroke:#000000;stroke-miterlimit:10;}
</style>
<linearGradient id="SVGID_1_" gradientUnits="userSpaceOnUse" x1="240.4594" y1="344.7373" x2="72.6548" y2="170.2497">
	<stop  offset="0" style="stop-color:#FFFFFF"/>
	<stop  offset="0.0746" style="stop-color:#EAEAF5"/>
	<stop  offset="0.2199" style="stop-color:#C1C1E1"/>
	<stop  offset="0.3601" style="stop-color:#9899CB"/>
	<stop  offset="0.4612" style="stop-color:#9798CB"/>
	<stop  offset="0.4976" style="stop-color:#9194C9"/>
	<stop  offset="0.5236" style="stop-color:#888DC5"/>
	<stop  offset="0.5444" style="stop-color:#7B84C0"/>
	<stop  offset="0.5589" style="stop-color:#6D7BBC"/>
	<stop  offset="0.5983" style="stop-color:#7983C0"/>
	<stop  offset="0.6737" style="stop-color:#9899CB"/>
	<stop  offset="0.674" style="stop-color:#9899CB"/>
	<stop  offset="0.7154" style="stop-color:#9393C8"/>
	<stop  offset="0.7764" style="stop-color:#8584BF"/>
	<stop  offset="0.8493" style="stop-color:#706EB3"/>
	<stop  offset="0.9308" style="stop-color:#5252A3"/>
	<stop  offset="1" style="stop-color:#363795"/>
</linearGradient>
<path class="st0" d="M58.48,374.627c0,0,8.507,2.652,61.464,11.787c18.563,3.202,39.671-0.438,57.793-4.182
	c16.38-3.384,30.432-12.177,39.923-22.433c23.574-25.475,22.433-51.71,21.672-63.116c-1.767-26.512-19.363-41.903-28.122-48.943
	c-10.864-8.733-53.317-31.532-69.975-39.648c-14.829-7.224-29.196-14.331-36.978-23.908c-9.46-11.643-10.676-30.16-7.277-39.295
	c6.276-16.866,20.485-19.286,26.99-21.649c32.497-11.803,94.6,11.643,94.6,11.643v-32.018c0,0-77.863-25.469-126.618,0.728
	c-10.859,5.834-17.093,16.744-27.718,37.658c-5.756,11.33-4.786,17.404-3.986,29.2c0.997,14.708,3.876,22.973,6.897,26.832
	c13.098,16.737,11.517,17.033,31.125,31.342c4.304,3.141,64.004,33.584,76.804,41.444c21.672,13.308,34.6,31.558,23.574,58.554
	c-3.288,8.049-15.969,26.615-45.626,30.037c-17.226,1.988-35.404-3.041-53.231-6.464c-18.098-3.475-41.313-15.742-41.313-15.742
	V374.627z"/>
<path class="st1" d="M207.606,432.448c11.614-27.419,44.779-10.588,44.779-10.588v-10.316c-4.934-1.398-24.908-6.651-39.181,0.407
	c-4.112,2.553-15.463,7.33-20.01,25.655c-2.572,10.365-2.169,21.854-1.05,26.673c4.198,22.126,18.961,28.302,18.961,28.302
	s6.216,4.802,20.08,4.802c12.174,0,22.04-4.327,22.04-4.327v-8.959c0,0-26.779,12.379-42.4-6.719
	C199,462.921,204.08,440.772,207.606,432.448z"/>
<polygon class="st1" points="391.12,486.831 391.12,495.315 338.855,495.315 338.855,410.613 350.609,410.613 350.609,486.831 "/>
<path class="st1" d="M103.261,409.502h10.201v3.614c0,0-0.129-1.179-0.021,8.908c0.105,9.722-0.231,36.531-0.157,41.18
	c0.262,16.594-2.756,20.068-4.355,22.244c-6.769,9.213-16.5,10.387-16.5,10.387c-12.489,2.24-20.23-2.548-21.964-3.362
	c-6.258-2.94-11.44-10.384-11.984-22.567l0.055-60.404h11.894c0,0-0.202,20.079-0.07,36.65c0.073,6.727-1.093,23.354,0.63,29.931
	c0.125,0.477,1.469,7.941,9.446,10.791c2.048,0.732,9.498,2.494,16.32-2.036c1.492-0.991,6.333-4.104,6.454-15.271l0.052-21.379
	v-20.514V409.502z"/>
<path class="st1" d="M464.222,491.745c0,0,2.527,0.764,18.258,3.396c5.514,0.923,11.784-0.126,17.167-1.205
	c4.866-0.975,9.04-3.509,11.859-6.464c7.002-7.34,6.664-14.9,6.438-18.187c-0.525-7.639-5.752-12.074-8.353-14.103
	c-3.227-2.516-15.838-9.086-20.786-11.424c-4.405-2.082-8.673-4.13-10.984-6.889c-2.81-3.355-3.171-8.691-2.162-11.323
	c1.864-4.86,6.085-5.557,8.017-6.238c9.653-3.401,28.1,3.355,28.1,3.355v-9.226c0,0-23.129-7.339-37.611,0.21
	c-3.225,1.681-5.077,4.825-8.233,10.851c-1.71,3.265-1.422,5.015-1.184,8.414c0.296,4.238,1.151,6.619,2.049,7.731
	c3.891,4.823,3.421,4.908,9.246,9.031c1.279,0.905,19.012,9.677,22.814,11.942c6.438,3.835,10.278,9.093,7.002,16.872
	c-0.977,2.319-4.744,7.669-13.553,8.655c-5.117,0.573-10.517-0.876-15.812-1.862c-5.376-1.001-12.272-4.536-12.272-4.536V491.745z"
	/>
<linearGradient id="SVGID_2_" gradientUnits="userSpaceOnUse" x1="304.6291" y1="91.7209" x2="565.7587" y2="365.3994">
	<stop  offset="0" style="stop-color:#FFFFFF"/>
	<stop  offset="0.1088" style="stop-color:#C2CABD"/>
	<stop  offset="0.2382" style="stop-color:#91A28B"/>
	<stop  offset="0.3693" style="stop-color:#6C8667"/>
	<stop  offset="0.4993" style="stop-color:#4F734E"/>
	<stop  offset="0.628" style="stop-color:#38653C"/>
	<stop  offset="0.7552" style="stop-color:#265C32"/>
	<stop  offset="0.8801" style="stop-color:#18572C"/>
	<stop  offset="1" style="stop-color:#12562B"/>
</linearGradient>
<polygon class="st2" points="292.564,105.88 292.564,134.016 386.858,134.016 386.858,387.403 424.5,387.403 424.5,134.016 
	518.034,134.016 518.034,105.88 "/>
</svg>
